<?xml version="1.0" encoding="utf-8"?>
<!-- Generator: Adobe Illustrator 25.0.0, SVG Export Plug-In . SVG Version: 6.00 Build 0)  -->
<svg version="1.1" id="Layer_1" xmlns="http://www.w3.org/2000/svg" xmlns:xlink="http://www.w3.org/1999/xlink" x="0px" y="0px"
	 viewBox="0 0 190 200" style="enable-background:new 0 0 190 200;" xml:space="preserve">
<style type="text/css">
	.st0{fill:url(#SVGID_1_);}
	.st1{fill:url(#SVGID_2_);}
	.st2{fill:url(#SVGID_3_);}
	.st3{fill:url(#SVGID_4_);}
	.st4{fill:url(#SVGID_5_);}
	.st5{fill:url(#SVGID_6_);}
	.st6{fill:url(#SVGID_7_);}
	.st7{fill:url(#SVGID_8_);}
	.st8{fill:url(#SVGID_9_);}
	.st9{fill:url(#SVGID_10_);}
	.st10{fill:url(#SVGID_11_);}
	.st11{fill:url(#SVGID_12_);}
	.st12{fill:url(#SVGID_13_);}
</style>
<g>
	<g>
		<linearGradient id="SVGID_1_" gradientUnits="userSpaceOnUse" x1="58.7762" y1="-61.9437" x2="37.1835" y2="539.5688">
			<stop  offset="0" style="stop-color:#06D0FF"/>
			<stop  offset="0.5669" style="stop-color:#1577A5"/>
		</linearGradient>
		<path class="st0" d="M89.9,73.5V22.7c0-0.7-1-0.9-1.2-0.2c-1.5,4.2-3.2,8.3-5.2,12.3v38.7c0,8.2-6.7,14.9-14.9,14.9H29.9
			c-4,2-8.1,3.7-12.3,5.2c-0.7,0.2-0.5,1.2,0.2,1.2h50.7C80.3,94.8,89.9,85.3,89.9,73.5z"/>
		<linearGradient id="SVGID_2_" gradientUnits="userSpaceOnUse" x1="64.3102" y1="-61.745" x2="42.7175" y2="539.7675">
			<stop  offset="0" style="stop-color:#06D0FF"/>
			<stop  offset="0.5669" style="stop-color:#1577A5"/>
		</linearGradient>
		<path class="st1" d="M77.7,72V46.2c0-0.3-0.4-0.4-0.6-0.2c-1.8,2.9-3.8,5.7-5.8,8.4V72c0,2.4-1.9,4.3-4.3,4.3H49.4
			c-2.7,2.1-5.5,4-8.3,5.8c-0.3,0.2-0.2,0.6,0.2,0.6H67C72.9,82.7,77.7,77.9,77.7,72z"/>
		<linearGradient id="SVGID_3_" gradientUnits="userSpaceOnUse" x1="140.8231" y1="-58.9984" x2="119.2304" y2="542.5141">
			<stop  offset="0" style="stop-color:#06D0FF"/>
			<stop  offset="0.1587" style="stop-color:#0FB7E5"/>
			<stop  offset="0.5669" style="stop-color:#1577A5"/>
		</linearGradient>
		<path class="st2" d="M121.5,94.9h50.8c0.7,0,0.9-1,0.2-1.2c-4.2-1.5-8.3-3.2-12.3-5.2h-38.7c-8.2,0-14.9-6.7-14.9-14.9V34.9
			c-2-4-3.7-8.1-5.2-12.3c-0.2-0.7-1.2-0.5-1.2,0.2v50.7C100.2,85.4,109.7,94.9,121.5,94.9z"/>
		<linearGradient id="SVGID_4_" gradientUnits="userSpaceOnUse" x1="135.2104" y1="-59.1999" x2="113.6177" y2="542.3126">
			<stop  offset="0" style="stop-color:#06D0FF"/>
			<stop  offset="0.5669" style="stop-color:#1577A5"/>
		</linearGradient>
		<path class="st3" d="M123.1,82.8h25.8c0.3,0,0.4-0.4,0.2-0.6c-2.9-1.8-5.7-3.8-8.4-5.8h-17.6c-2.4,0-4.3-1.9-4.3-4.3V54.5
			c-2.1-2.7-4-5.5-5.8-8.3c-0.2-0.3-0.6-0.2-0.6,0.2v25.8C112.4,78,117.1,82.8,123.1,82.8z"/>
		<linearGradient id="SVGID_5_" gradientUnits="userSpaceOnUse" x1="142.7413" y1="-58.9296" x2="121.1485" y2="542.5829">
			<stop  offset="0" style="stop-color:#06D0FF"/>
			<stop  offset="0.5669" style="stop-color:#1577A5"/>
		</linearGradient>
		<path class="st4" d="M121.4,111.6h38.7c4-2,8.1-3.7,12.3-5.2c0.7-0.2,0.5-1.2-0.2-1.2h-50.7c-11.8,0-21.3,9.5-21.3,21.3v50.8
			c0,0.7,1,0.9,1.2,0.2c1.5-4.2,3.2-8.3,5.2-12.3v-38.7C106.6,118.3,113.2,111.6,121.4,111.6z"/>
		<linearGradient id="SVGID_6_" gradientUnits="userSpaceOnUse" x1="137.2076" y1="-59.1282" x2="115.6148" y2="542.3843">
			<stop  offset="0" style="stop-color:#06D0FF"/>
			<stop  offset="0.5669" style="stop-color:#1577A5"/>
		</linearGradient>
		<path class="st5" d="M123,123.8h17.6c2.7-2.1,5.5-4,8.3-5.8c0.3-0.2,0.2-0.6-0.2-0.6H123c-5.9,0-10.7,4.8-10.7,10.7v25.8
			c0,0.3,0.4,0.4,0.6,0.2c1.8-2.9,3.8-5.7,5.8-8.4V128C118.7,125.7,120.6,123.8,123,123.8z"/>
		<linearGradient id="SVGID_7_" gradientUnits="userSpaceOnUse" x1="60.695" y1="-61.8748" x2="39.1023" y2="539.6377">
			<stop  offset="0" style="stop-color:#06D0FF"/>
			<stop  offset="0.5669" style="stop-color:#1577A5"/>
		</linearGradient>
		<path class="st6" d="M68.5,105.1H17.6c-0.7,0-0.9,1-0.2,1.2c4.2,1.5,8.3,3.2,12.3,5.2h38.7c8.2,0,14.9,6.7,14.9,14.9v38.7
			c2,4,3.7,8.1,5.2,12.3c0.2,0.7,1.2,0.5,1.2-0.2v-50.7C89.8,114.6,80.3,105.1,68.5,105.1z"/>
		<linearGradient id="SVGID_8_" gradientUnits="userSpaceOnUse" x1="66.3075" y1="-61.6733" x2="44.7147" y2="539.8392">
			<stop  offset="0" style="stop-color:#06D0FF"/>
			<stop  offset="0.5669" style="stop-color:#1577A5"/>
		</linearGradient>
		<path class="st7" d="M66.9,117.2H41.1c-0.3,0-0.4,0.4-0.2,0.6c2.9,1.8,5.7,3.8,8.4,5.8h17.6c2.4,0,4.3,1.9,4.3,4.3v17.6
			c2.1,2.7,4,5.5,5.8,8.3c0.2,0.3,0.6,0.2,0.6-0.2v-25.8C77.6,122,72.9,117.2,66.9,117.2z"/>
		<linearGradient id="SVGID_9_" gradientUnits="userSpaceOnUse" x1="67.1377" y1="-61.6435" x2="45.545" y2="539.869">
			<stop  offset="0" style="stop-color:#06D0FF"/>
			<stop  offset="0.5669" style="stop-color:#1577A5"/>
		</linearGradient>
		<path class="st8" d="M65.7,71.4h-6.4c-0.4,0-0.6-0.3-0.6-0.6v-6.4c0-0.4,0.3-0.6,0.6-0.6h6.4c0.4,0,0.6,0.3,0.6,0.6v6.4
			C66.4,71.1,66.1,71.4,65.7,71.4z"/>
		<linearGradient id="SVGID_10_" gradientUnits="userSpaceOnUse" x1="132.0505" y1="-59.3133" x2="110.4578" y2="542.1992">
			<stop  offset="0" style="stop-color:#06D0FF"/>
			<stop  offset="0.5669" style="stop-color:#1577A5"/>
		</linearGradient>
		<path class="st9" d="M130.7,71.4h-6.4c-0.4,0-0.6-0.3-0.6-0.6v-6.4c0-0.4,0.3-0.6,0.6-0.6h6.4c0.4,0,0.6,0.3,0.6,0.6v6.4
			C131.4,71.1,131.1,71.4,130.7,71.4z"/>
		<linearGradient id="SVGID_11_" gradientUnits="userSpaceOnUse" x1="69.4679" y1="-61.5599" x2="47.8752" y2="539.9526">
			<stop  offset="0" style="stop-color:#06D0FF"/>
			<stop  offset="0.5669" style="stop-color:#1577A5"/>
		</linearGradient>
		<path class="st10" d="M65.7,136.4h-6.4c-0.4,0-0.6-0.3-0.6-0.6v-6.4c0-0.4,0.3-0.6,0.6-0.6h6.4c0.4,0,0.6,0.3,0.6,0.6v6.4
			C66.4,136.1,66.1,136.4,65.7,136.4z"/>
		<linearGradient id="SVGID_12_" gradientUnits="userSpaceOnUse" x1="134.3807" y1="-59.2297" x2="112.788" y2="542.2828">
			<stop  offset="0" style="stop-color:#06D0FF"/>
			<stop  offset="0.5669" style="stop-color:#1577A5"/>
		</linearGradient>
		<path class="st11" d="M130.7,136.4h-6.4c-0.4,0-0.6-0.3-0.6-0.6v-6.4c0-0.4,0.3-0.6,0.6-0.6h6.4c0.4,0,0.6,0.3,0.6,0.6v6.4
			C131.4,136.1,131.1,136.4,130.7,136.4z"/>
	</g>
	<linearGradient id="SVGID_13_" gradientUnits="userSpaceOnUse" x1="100.7593" y1="-60.4366" x2="79.1665" y2="541.0759">
		<stop  offset="0" style="stop-color:#06D0FF"/>
		<stop  offset="0.5669" style="stop-color:#1577A5"/>
	</linearGradient>
	<path class="st12" d="M98.2,103.9h-6.4c-0.4,0-0.6-0.3-0.6-0.6v-6.4c0-0.4,0.3-0.6,0.6-0.6h6.4c0.4,0,0.6,0.3,0.6,0.6v6.4
		C98.9,103.6,98.6,103.9,98.2,103.9z"/>
</g>
</svg>
